<?xml version="1.0" encoding="iso-8859-1"?>
<!-- Uploaded to: SVG Repo, www.svgrepo.com, Generator: SVG Repo Mixer Tools -->
<svg fill="#000000" height="800px" width="800px" version="1.1" id="Layer_1" xmlns="http://www.w3.org/2000/svg" xmlns:xlink="http://www.w3.org/1999/xlink" 
	 viewBox="0 0 507.915 507.915" xml:space="preserve">
<g>
	<g>
		<path d="M477.695,357.5V136.8c0-7.8-6.3-14.1-14.1-14.1c-9.1,0-18,0.6-26.7,1.8V91.1c-0.1-50.2-40.9-91.1-91.1-91.1h-90.9
			c-43.3,0-80.8,30.8-89.3,73.2l-11.3,56.8l-6.1,37.7l-18-2.9c-7.7-1.2-14.9,4-16.2,11.7c-1.2,7.7,4,14.9,11.7,16.2l18,2.9
			l-33.1,204.8l-54.9-8.3c-5.5-0.8-11,1.7-14,6.4L2.295,461c-2.5,4-6.3,19.2,9.7,21.4l155.8,25.2c0.8,0.1,9.5,2.5,14.9-7.7l32-65.3
			c2-4,2.5-17.9-10.6-20.2l-65.6-9.9l33-204.5l18,2.9c0.8,0.1,13.8,2.1,16.2-11.7c1.4-7.7-4-14.9-11.7-16.2l-18-2.9l6-37.2
			l11.2-56.3c5.8-29.3,31.8-50.5,61.6-50.5h90.9c34.7,0,62.9,28.2,62.9,62.9v39.1c-88.6,24.2-154,105.4-154,201.6v111.1
			c0,7.8,6.3,14.1,14.1,14.1h76c13.2,30,43.1,51,77.9,51c47,0,85.3-38.2,85.3-85.3C507.995,396.5,496.195,373.2,477.695,357.5z
			 M180.895,439.5l-19,38.6L37.495,458l23.1-36.6L180.895,439.5z M337.495,422.6c0,2,0.1,4,0.2,6.1h-54.8v-96.9
			c0-94.9,73.5-173,166.6-180.2v190.1c-8.6-2.8-17.6-4.3-26.8-4.3C375.695,337.3,337.495,375.6,337.495,422.6z M422.695,479.6
			c-31.5,0-57.1-25.6-57.1-57c0-31.5,25.6-57,57.1-57s57,25.6,57,57C479.795,454.1,454.195,479.6,422.695,479.6z"/>
	</g>
</g>
</svg>